# Blender 3.3.1
# www.blender.org
mtllib ArmcoBarrier.mtl
o Cube
v -4.603456 -0.550088 -0.242536
v -4.597836 0.898545 -0.183821
v -4.603456 -0.550088 -0.091243
v -4.597836 0.898545 -0.032527
v 0.856722 -0.550088 -0.242536
v 0.862342 0.898545 -0.183821
v 0.856722 -0.550088 -0.091243
v 0.862342 0.898545 -0.032527
v -4.597681 -0.194668 -0.075647
v -4.600639 0.178937 -0.188057
v -4.597681 0.534518 -0.075647
v -4.597681 0.534518 0.075647
v -4.600639 0.178937 -0.036764
v -4.597681 -0.194668 0.075647
v 0.862497 0.534518 0.075647
v 0.859538 0.178937 -0.036764
v 0.862497 -0.194668 0.075647
v 0.862497 0.534518 -0.075647
v 0.859538 0.178937 -0.188057
v 0.862497 -0.194668 -0.075647
vn -1.0000 -0.0004 -0.0000
vn -0.0000 0.2848 0.9586
vn 1.0000 0.0004 -0.0000
vn -0.0000 -0.2848 -0.9586
vn -0.0000 -1.0000 -0.0000
vn -0.0000 1.0000 -0.0000
vn -0.0000 0.4250 -0.9052
vn -0.0000 -0.2881 -0.9576
vn -0.0000 0.3014 -0.9535
vn 0.9999 -0.0162 -0.0000
vn 1.0000 0.0079 -0.0000
vn 1.0000 -0.0083 -0.0000
vn -0.0000 -0.4250 0.9052
vn -0.0000 0.2881 0.9576
vn -0.0000 -0.3014 0.9535
vn -0.9999 0.0162 -0.0000
vn -1.0000 -0.0079 -0.0000
vn -1.0000 0.0083 -0.0000
vt 0.125000 0.750000
vt 0.375000 1.000000
vt 0.375000 0.000000
vt 0.625000 0.000000
vt 0.625000 1.000000
vt 0.875000 0.750000
vt 0.125000 0.500000
vt 0.375000 0.250000
vt 0.625000 0.250000
vt 0.875000 0.500000
vt 0.375000 0.750000
vt 0.625000 0.750000
vt 0.375000 0.500000
vt 0.625000 0.500000
vt 0.437500 1.000000
vt 0.437500 0.000000
vt 0.500000 1.000000
vt 0.500000 0.000000
vt 0.562500 1.000000
vt 0.562500 0.000000
vt 0.562500 0.250000
vt 0.500000 0.250000
vt 0.437500 0.250000
vt 0.562500 0.500000
vt 0.500000 0.500000
vt 0.437500 0.500000
vt 0.562500 0.750000
vt 0.500000 0.750000
vt 0.437500 0.750000
s 0
f 11/20/1 12/21/1 4/9/1 2/4/1
f 12/21/2 15/24/2 8/14/2 4/9/2
f 15/24/3 18/27/3 6/12/3 8/14/3
f 18/27/4 11/19/4 2/5/4 6/12/4
f 3/7/5 1/1/5 5/11/5 7/13/5
f 8/14/6 6/12/6 2/6/6 4/10/6
f 5/11/7 1/2/7 9/15/7 20/29/7
f 20/29/8 9/15/8 10/17/8 19/28/8
f 19/28/9 10/17/9 11/19/9 18/27/9
f 7/13/10 5/11/10 20/29/10 17/26/10
f 17/26/11 20/29/11 19/28/11 16/25/11
f 16/25/12 19/28/12 18/27/12 15/24/12
f 3/8/13 7/13/13 17/26/13 14/23/13
f 14/23/14 17/26/14 16/25/14 13/22/14
f 13/22/15 16/25/15 15/24/15 12/21/15
f 1/3/16 3/8/16 14/23/16 9/16/16
f 9/16/17 14/23/17 13/22/17 10/18/17
f 10/18/18 13/22/18 12/21/18 11/20/18
o Cube.001
v 0.375104 -3.412542 -0.054237
v 0.375104 1.071349 -0.054237
v 0.375104 -3.412542 -0.372473
v 0.375104 1.071349 -0.372473
v 0.660818 -3.412542 -0.054237
v 0.660818 1.071349 -0.054237
v 0.660818 -3.412542 -0.372473
v 0.660818 1.071349 -0.372473
vn -1.0000 -0.0000 -0.0000
vn -0.0000 -0.0000 -1.0000
vn 1.0000 -0.0000 -0.0000
vn -0.0000 -0.0000 1.0000
vn -0.0000 -1.0000 -0.0000
vn -0.0000 1.0000 -0.0000
vt 0.375000 0.000000
vt 0.375000 1.000000
vt 0.125000 0.750000
vt 0.625000 0.000000
vt 0.625000 1.000000
vt 0.875000 0.750000
vt 0.375000 0.250000
vt 0.125000 0.500000
vt 0.625000 0.250000
vt 0.875000 0.500000
vt 0.375000 0.750000
vt 0.625000 0.750000
vt 0.375000 0.500000
vt 0.625000 0.500000
s 0
f 21/30/19 22/33/19 24/38/19 23/36/19
f 23/36/20 24/38/20 28/43/20 27/42/20
f 27/42/21 28/43/21 26/41/21 25/40/21
f 25/40/22 26/41/22 22/34/22 21/31/22
f 23/37/23 27/42/23 25/40/23 21/32/23
f 28/43/24 24/39/24 22/35/24 26/41/24
o Cube.002
v 0.375104 -3.412542 -0.054237
v 0.375104 1.071349 -0.054237
v 0.375104 -3.412542 -0.372473
v 0.375104 1.071349 -0.372473
v 0.660818 -3.412542 -0.054237
v 0.660818 1.071349 -0.054237
v 0.660818 -3.412542 -0.372473
v 0.660818 1.071349 -0.372473
vn -1.0000 -0.0000 -0.0000
vn -0.0000 -0.0000 -1.0000
vn 1.0000 -0.0000 -0.0000
vn -0.0000 -0.0000 1.0000
vn -0.0000 -1.0000 -0.0000
vn -0.0000 1.0000 -0.0000
vt 0.375000 0.000000
vt 0.375000 1.000000
vt 0.125000 0.750000
vt 0.625000 0.000000
vt 0.625000 1.000000
vt 0.875000 0.750000
vt 0.375000 0.250000
vt 0.125000 0.500000
vt 0.625000 0.250000
vt 0.875000 0.500000
vt 0.375000 0.750000
vt 0.625000 0.750000
vt 0.375000 0.500000
vt 0.625000 0.500000
s 0
f 29/44/25 30/47/25 32/52/25 31/50/25
f 31/50/26 32/52/26 36/57/26 35/56/26
f 35/56/27 36/57/27 34/55/27 33/54/27
f 33/54/28 34/55/28 30/48/28 29/45/28
f 31/51/29 35/56/29 33/54/29 29/46/29
f 36/57/30 32/53/30 30/49/30 34/55/30
o Cube.003
v -4.422020 -3.412542 -0.054237
v -4.422020 1.071349 -0.054237
v -4.422020 -3.412542 -0.372473
v -4.422020 1.071349 -0.372473
v -4.136306 -3.412542 -0.054237
v -4.136306 1.071349 -0.054237
v -4.136306 -3.412542 -0.372473
v -4.136306 1.071349 -0.372473
vn -1.0000 -0.0000 -0.0000
vn -0.0000 -0.0000 -1.0000
vn 1.0000 -0.0000 -0.0000
vn -0.0000 -0.0000 1.0000
vn -0.0000 -1.0000 -0.0000
vn -0.0000 1.0000 -0.0000
vt 0.375000 0.000000
vt 0.375000 1.000000
vt 0.125000 0.750000
vt 0.625000 0.000000
vt 0.625000 1.000000
vt 0.875000 0.750000
vt 0.375000 0.250000
vt 0.125000 0.500000
vt 0.625000 0.250000
vt 0.875000 0.500000
vt 0.375000 0.750000
vt 0.625000 0.750000
vt 0.375000 0.500000
vt 0.625000 0.500000
s 0
f 37/58/31 38/61/31 40/66/31 39/64/31
f 39/64/32 40/66/32 44/71/32 43/70/32
f 43/70/33 44/71/33 42/69/33 41/68/33
f 41/68/34 42/69/34 38/62/34 37/59/34
f 39/65/35 43/70/35 41/68/35 37/60/35
f 44/71/36 40/67/36 38/63/36 42/69/36
