# Blender 3.3.1
# www.blender.org
mtllib Rock.mtl
o Icosphere
v -0.005927 -0.963021 1.967451
v 1.183097 -0.260737 2.378984
v -0.598513 -0.311293 2.179228
v -1.556677 -0.526836 1.460221
v -0.367204 -0.609490 -0.455240
v 1.326052 -0.445031 1.783445
v 0.367204 0.609490 2.126098
v -1.326052 0.445031 1.558271
v -1.183097 0.260737 -0.708125
v 0.598513 0.311293 -0.508370
v 1.556677 0.526836 1.881495
v 0.005927 0.963021 1.374266
vn -0.0922 -0.3826 0.9193
vn 0.3810 -0.8535 0.3556
vn -0.3961 -0.5890 0.7044
vn -0.2371 -0.9657 -0.1056
vn 0.3339 -0.9243 -0.1847
vn 0.9215 -0.2488 0.2982
vn -0.1146 0.1766 0.9776
vn -0.6082 0.0645 0.7912
vn -0.6265 -0.6917 -0.3592
vn 0.6153 -0.6694 -0.4162
vn 0.2098 0.4491 0.8685
vn -0.3265 0.3921 0.8601
vn -0.9680 0.2378 -0.0804
vn 0.1146 -0.1766 -0.9776
vn 0.9182 -0.1824 -0.3517
vn 0.1392 0.9202 0.3658
vn -0.2504 0.8242 0.5079
vn -0.3725 0.9228 -0.0985
vn 0.0095 0.9459 -0.3244
vn 0.3289 0.9196 -0.2148
vt 0.181819 0.000000
vt 0.363637 0.000000
vt 0.909091 0.000000
vt 0.727273 0.000000
vt 0.545455 0.000000
vt 0.272728 0.157461
vt 1.000000 0.157461
vt 0.090910 0.157461
vt 0.818182 0.157461
vt 0.636364 0.157461
vt 0.454546 0.157461
vt 0.181819 0.314921
vt 0.000000 0.314921
vt 0.909091 0.314921
vt 0.727273 0.314921
vt 0.545455 0.314921
vt 0.363637 0.314921
vt 0.272728 0.472382
vt 0.090910 0.472382
vt 0.818182 0.472382
vt 0.636364 0.472382
vt 0.454546 0.472382
s 0
f 1/1/1 2/6/1 3/8/1
f 2/6/2 1/2/2 6/11/2
f 1/3/3 3/7/3 4/9/3
f 1/4/4 4/9/4 5/10/4
f 1/5/5 5/10/5 6/11/5
f 2/6/6 6/11/6 11/17/6
f 3/8/7 2/6/7 7/12/7
f 4/9/8 3/7/8 8/14/8
f 5/10/9 4/9/9 9/15/9
f 6/11/10 5/10/10 10/16/10
f 2/6/11 11/17/11 7/12/11
f 3/8/12 7/12/12 8/13/12
f 4/9/13 8/14/13 9/15/13
f 5/10/14 9/15/14 10/16/14
f 6/11/15 10/16/15 11/17/15
f 7/12/16 11/17/16 12/18/16
f 8/13/17 7/12/17 12/19/17
f 9/15/18 8/14/18 12/20/18
f 10/16/19 9/15/19 12/21/19
f 11/17/20 10/16/20 12/22/20
