# Blender 3.3.1
# www.blender.org
mtllib Gate.mtl
o Torus.001
v 1.090000 0.000000 0.000000
v 1.020000 0.121244 0.000000
v 0.880000 0.121244 0.000000
v 0.810000 0.000000 0.000000
v 0.880000 -0.121244 0.000000
v 1.020000 -0.121244 0.000000
v 0.881829 0.000000 -0.640686
v 0.825197 0.121244 -0.599541
v 0.711935 0.121244 -0.517251
v 0.655304 0.000000 -0.476106
v 0.711935 -0.121244 -0.517251
v 0.825197 -0.121244 -0.599541
v 0.336829 0.000000 -1.036652
v 0.315198 0.121244 -0.970078
v 0.271935 0.121244 -0.836930
v 0.250304 0.000000 -0.770356
v 0.271935 -0.121244 -0.836930
v 0.315198 -0.121244 -0.970078
v -0.336829 0.000000 -1.036652
v -0.315197 0.121244 -0.970078
v -0.271935 0.121244 -0.836930
v -0.250304 0.000000 -0.770356
v -0.271935 -0.121244 -0.836930
v -0.315197 -0.121244 -0.970078
v -0.881829 0.000000 -0.640686
v -0.825198 0.121244 -0.599541
v -0.711935 0.121244 -0.517251
v -0.655304 0.000000 -0.476106
v -0.711935 -0.121244 -0.517251
v -0.825198 -0.121244 -0.599541
v -1.090000 0.000000 -0.000000
v -1.020000 0.121244 -0.000000
v -0.880000 0.121244 -0.000000
v -0.810000 0.000000 -0.000000
v -0.880000 -0.121244 -0.000000
v -1.020000 -0.121244 -0.000000
v -0.881829 0.000000 0.640686
v -0.825198 0.121244 0.599541
v -0.711935 0.121244 0.517251
v -0.655304 0.000000 0.476106
v -0.711935 -0.121244 0.517251
v -0.825198 -0.121244 0.599541
v -0.336829 0.000000 1.036652
v -0.315197 0.121244 0.970078
v -0.271935 0.121244 0.836930
v -0.250304 0.000000 0.770356
v -0.271935 -0.121244 0.836930
v -0.315197 -0.121244 0.970078
v 0.336829 0.000000 1.036652
v 0.315198 0.121244 0.970078
v 0.271935 0.121244 0.836930
v 0.250304 0.000000 0.770356
v 0.271935 -0.121244 0.836930
v 0.315198 -0.121244 0.970078
v 0.881828 0.000000 0.640686
v 0.825197 0.121244 0.599541
v 0.711935 0.121244 0.517251
v 0.655304 0.000000 0.476106
v 0.711935 -0.121244 0.517251
v 0.825197 -0.121244 0.599541
vn 0.8336 0.4813 -0.2709
vn -0.0000 1.0000 -0.0000
vn -0.8337 0.4813 0.2709
vn -0.8337 -0.4813 0.2709
vn -0.0000 -1.0000 -0.0000
vn 0.8336 -0.4813 -0.2709
vn 0.5152 0.4813 -0.7091
vn -0.5152 0.4813 0.7091
vn -0.5152 -0.4813 0.7091
vn 0.5152 -0.4813 -0.7091
vn -0.0000 0.4813 -0.8766
vn -0.0000 0.4813 0.8766
vn -0.0000 -0.4813 0.8766
vn -0.0000 -0.4813 -0.8766
vn -0.5152 0.4813 -0.7091
vn 0.5152 0.4813 0.7091
vn 0.5152 -0.4813 0.7091
vn -0.5152 -0.4813 -0.7091
vn -0.8336 0.4813 -0.2709
vn 0.8337 0.4813 0.2709
vn 0.8337 -0.4813 0.2709
vn -0.8336 -0.4813 -0.2709
vn 0.8337 0.4813 -0.2709
vn 0.8337 -0.4813 -0.2709
vn 0.8336 0.4813 0.2709
vn -0.8337 0.4813 -0.2709
vn -0.8337 -0.4813 -0.2709
vn 0.8336 -0.4813 0.2709
vt 0.600000 0.500000
vt 0.600000 0.666667
vt 0.600000 0.833333
vt 0.600000 1.000000
vt 0.600000 -0.000000
vt 0.600000 0.166667
vt 0.600000 0.333333
vt 0.700000 0.500000
vt 0.700000 0.666667
vt 0.700000 0.833333
vt 0.700000 1.000000
vt 0.700000 -0.000000
vt 0.700000 0.166667
vt 0.700000 0.333333
vt 0.800000 0.500000
vt 0.800000 0.666667
vt 0.800000 0.833333
vt 0.800000 1.000000
vt 0.800000 -0.000000
vt 0.800000 0.166667
vt 0.800000 0.333333
vt 0.900000 0.500000
vt 0.900000 0.666667
vt 0.900000 0.833333
vt 0.900000 1.000000
vt 0.900000 -0.000000
vt 0.900000 0.166667
vt 0.900000 0.333333
vt 1.000000 0.500000
vt -0.000000 0.500000
vt 1.000000 0.666667
vt -0.000000 0.666667
vt 1.000000 0.833333
vt -0.000000 0.833333
vt 1.000000 1.000000
vt 1.000000 -0.000000
vt -0.000000 1.000000
vt -0.000000 -0.000000
vt 1.000000 0.166667
vt -0.000000 0.166667
vt 1.000000 0.333333
vt -0.000000 0.333333
vt 0.100000 0.500000
vt 0.100000 0.666667
vt 0.100000 0.833333
vt 0.100000 1.000000
vt 0.100000 -0.000000
vt 0.100000 0.166667
vt 0.100000 0.333333
vt 0.200000 0.500000
vt 0.200000 0.666667
vt 0.200000 0.833333
vt 0.200000 1.000000
vt 0.200000 -0.000000
vt 0.200000 0.166667
vt 0.200000 0.333333
vt 0.300000 0.500000
vt 0.300000 0.666667
vt 0.300000 0.833333
vt 0.300000 1.000000
vt 0.300000 -0.000000
vt 0.300000 0.166667
vt 0.300000 0.333333
vt 0.400000 0.500000
vt 0.400000 0.666667
vt 0.400000 0.833333
vt 0.400000 1.000000
vt 0.400000 -0.000000
vt 0.400000 0.166667
vt 0.400000 0.333333
vt 0.500000 0.500000
vt 0.500000 0.666667
vt 0.500000 0.833333
vt 0.500000 1.000000
vt 0.500000 -0.000000
vt 0.500000 0.166667
vt 0.500000 0.333333
s 0
f 1/1/1 7/8/1 8/9/1 2/2/1
f 2/2/2 8/9/2 9/10/2 3/3/2
f 3/3/3 9/10/3 10/11/3 4/4/3
f 4/5/4 10/12/4 11/13/4 5/6/4
f 5/6/5 11/13/5 12/14/5 6/7/5
f 6/7/6 12/14/6 7/8/6 1/1/6
f 7/8/7 13/15/7 14/16/7 8/9/7
f 8/9/2 14/16/2 15/17/2 9/10/2
f 9/10/8 15/17/8 16/18/8 10/11/8
f 10/12/9 16/19/9 17/20/9 11/13/9
f 11/13/5 17/20/5 18/21/5 12/14/5
f 12/14/10 18/21/10 13/15/10 7/8/10
f 13/15/11 19/22/11 20/23/11 14/16/11
f 14/16/2 20/23/2 21/24/2 15/17/2
f 15/17/12 21/24/12 22/25/12 16/18/12
f 16/19/13 22/26/13 23/27/13 17/20/13
f 17/20/5 23/27/5 24/28/5 18/21/5
f 18/21/14 24/28/14 19/22/14 13/15/14
f 19/22/15 25/29/15 26/31/15 20/23/15
f 20/23/2 26/31/2 27/33/2 21/24/2
f 21/24/16 27/33/16 28/35/16 22/25/16
f 22/26/17 28/36/17 29/39/17 23/27/17
f 23/27/5 29/39/5 30/41/5 24/28/5
f 24/28/18 30/41/18 25/29/18 19/22/18
f 25/30/19 31/43/19 32/44/19 26/32/19
f 26/32/2 32/44/2 33/45/2 27/34/2
f 27/34/20 33/45/20 34/46/20 28/37/20
f 28/38/21 34/47/21 35/48/21 29/40/21
f 29/40/5 35/48/5 36/49/5 30/42/5
f 30/42/22 36/49/22 31/43/22 25/30/22
f 31/43/3 37/50/3 38/51/3 32/44/3
f 32/44/2 38/51/2 39/52/2 33/45/2
f 33/45/23 39/52/23 40/53/23 34/46/23
f 34/47/24 40/54/24 41/55/24 35/48/24
f 35/48/5 41/55/5 42/56/5 36/49/5
f 36/49/4 42/56/4 37/50/4 31/43/4
f 37/50/8 43/57/8 44/58/8 38/51/8
f 38/51/2 44/58/2 45/59/2 39/52/2
f 39/52/7 45/59/7 46/60/7 40/53/7
f 40/54/10 46/61/10 47/62/10 41/55/10
f 41/55/5 47/62/5 48/63/5 42/56/5
f 42/56/9 48/63/9 43/57/9 37/50/9
f 43/57/12 49/64/12 50/65/12 44/58/12
f 44/58/2 50/65/2 51/66/2 45/59/2
f 45/59/11 51/66/11 52/67/11 46/60/11
f 46/61/14 52/68/14 53/69/14 47/62/14
f 47/62/5 53/69/5 54/70/5 48/63/5
f 48/63/13 54/70/13 49/64/13 43/57/13
f 49/64/16 55/71/16 56/72/16 50/65/16
f 50/65/2 56/72/2 57/73/2 51/66/2
f 51/66/15 57/73/15 58/74/15 52/67/15
f 52/68/18 58/75/18 59/76/18 53/69/18
f 53/69/5 59/76/5 60/77/5 54/70/5
f 54/70/17 60/77/17 55/71/17 49/64/17
f 55/71/25 1/1/25 2/2/25 56/72/25
f 56/72/2 2/2/2 3/3/2 57/73/2
f 57/73/26 3/3/26 4/4/26 58/74/26
f 58/75/27 4/5/27 5/6/27 59/76/27
f 59/76/5 5/6/5 6/7/5 60/77/5
f 60/77/28 6/7/28 1/1/28 55/71/28
